# This file uses centimeters as units for non-parametric coordinates.

mtllib gearss.mtl
g default
v 0.370445 1.568885 -1.136978
v 0.370445 0.578914 -1.856239
v 0.370445 -0.644757 -1.856239
v 0.370445 -1.634732 -1.136978
v 0.370445 -2.012864 0.026795
v 0.370453 -1.634728 1.190582
v 0.370460 -0.644757 1.909844
v 0.370453 0.578918 1.909844
v 0.370445 1.568885 1.190582
v 0.370453 1.947025 0.026795
v -0.439537 1.568885 -1.136982
v -0.439537 0.578914 -1.856239
v -0.439537 -0.644757 -1.856235
v -0.439537 -1.634732 -1.136982
v -0.439537 -2.012864 0.026798
v -0.439537 -1.634728 1.190582
v -0.439537 -0.644757 1.909840
v -0.439545 0.578918 1.909840
v -0.439537 1.568885 1.190582
v -0.439537 1.947025 0.026798
v 0.285736 0.948474 2.510987
v 0.285736 2.022571 1.730618
v -0.354821 2.022571 1.730606
v -0.354828 0.948474 2.510987
v 0.285736 -2.088410 1.730618
v 0.285728 -1.014317 2.510987
v -0.354836 -1.014317 2.510987
v -0.354821 -2.088410 1.730606
v 0.285736 -2.284615 -1.398792
v 0.285736 -2.694996 -0.136131
v -0.354828 -2.694996 -0.136131
v -0.354828 -2.284615 -1.398788
v 0.285736 0.630897 -2.552505
v 0.285736 -0.696736 -2.552505
v -0.354828 -0.696736 -2.552505
v -0.354828 0.630897 -2.552505
v 0.285736 2.629154 -0.136139
v 0.285736 2.218772 -1.398792
v -0.354828 2.218772 -1.398788
v -0.354828 2.629154 -0.136139
v 0.370445 0.580375 -0.418789
v 0.370445 0.201339 -0.694176
v 0.370437 -0.267182 -0.694176
v 0.370445 -0.646222 -0.418789
v 0.370445 -0.791001 0.026795
v 0.370445 -0.646218 0.472389
v 0.370453 -0.267178 0.747776
v 0.370445 0.201339 0.747776
v 0.370445 0.580375 0.472389
v 0.370445 0.725154 0.026795
v -0.439537 0.580375 -0.418789
v -0.439537 0.201339 -0.694179
v -0.439537 -0.267182 -0.694179
v -0.439537 -0.646222 -0.418789
v -0.439537 -0.791001 0.026791
v -0.439537 -0.646218 0.472389
v -0.439537 -0.267178 0.747776
v -0.439537 0.201339 0.747776
v -0.439537 0.580375 0.472389
v -0.439537 0.725154 0.026798
vt 0.398140 0.094306
vt 0.359008 0.094307
vt 0.327390 0.117623
vt 0.315299 0.154839
vt 0.921606 0.792762
vt 0.921610 0.849305
vt 0.347208 0.075498
vt 0.894325 0.792764
vt 0.327351 0.117309
vt 0.315260 0.154525
vt 0.398178 0.094620
vt 0.359047 0.094621
vt 0.921547 0.118627
vt 0.921552 0.175172
vt 0.444517 0.100450
vt 0.894266 0.118630
vt 0.327353 0.191740
vt 0.359012 0.214740
vt 0.441930 0.154835
vt 0.429837 0.117620
vt 0.921562 0.287195
vt 0.921567 0.343738
vt 0.450854 0.200707
vt 0.894281 0.287197
vt 0.398143 0.214739
vt 0.429800 0.191738
vt 0.398182 0.215053
vt 0.429839 0.192051
vt 0.921577 0.455960
vt 0.921582 0.512503
vt 0.357465 0.237715
vt 0.894296 0.455963
vt 0.441891 0.154521
vt 0.429798 0.117306
vt 0.327392 0.192055
vt 0.359051 0.215054
vt 0.921593 0.624526
vt 0.921598 0.681071
vt 0.293409 0.160333
vt 0.894312 0.624529
vt 0.351620 0.009782
vt 0.331666 0.009783
vt 0.311712 0.009783
vt 0.291758 0.009782
vt 0.271805 0.009782
vt 0.451389 0.009781
vt 0.431435 0.009781
vt 0.411481 0.009782
vt 0.391527 0.009782
vt 0.371574 0.009782
vt 0.331666 0.044279
vt 0.351620 0.044279
vt 0.311712 0.044279
vt 0.291759 0.044279
vt 0.471343 0.044278
vt 0.451389 0.044278
vt 0.431435 0.044278
vt 0.411482 0.044278
vt 0.391528 0.044278
vt 0.371574 0.044279
vt 0.398188 0.140273
vt 0.386066 0.131467
vt 0.402818 0.154522
vt 0.398188 0.168772
vt 0.386068 0.177578
vt 0.371085 0.177579
vt 0.358964 0.168773
vt 0.354333 0.154524
vt 0.925163 0.205040
vt 0.358963 0.140274
vt 0.371084 0.131468
vt 0.444478 0.100136
vt 0.410127 0.075184
vt 0.925209 0.710911
vt 0.925198 0.594657
vt 0.347169 0.075184
vt 0.293370 0.160018
vt 0.925152 0.088787
vt 0.357426 0.237402
vt 0.399882 0.237400
vt 0.925177 0.373791
vt 0.925167 0.257156
vt 0.450815 0.200393
vt 0.463934 0.160014
vt 0.306488 0.200398
vt 0.312822 0.100140
vt 0.359003 0.169087
vt 0.354372 0.154838
vt 0.371124 0.177893
vt 0.386106 0.177892
vt 0.398227 0.169086
vt 0.402857 0.154836
vt 0.398226 0.140587
vt 0.386105 0.131781
vt 0.371123 0.131781
vt 0.359002 0.140588
vt 0.471343 0.009781
vt 0.271805 0.044279
vt 0.306527 0.200712
vt 0.894317 0.681073
vt 0.890701 0.594661
vt 0.890712 0.710913
vt 0.312861 0.100454
vt 0.894329 0.849307
vt 0.890715 0.763028
vt 0.890649 0.036675
vt 0.410166 0.075498
vt 0.894271 0.175175
vt 0.890655 0.088791
vt 0.890666 0.205043
vt 0.463973 0.160328
vt 0.894286 0.343740
vt 0.890670 0.257159
vt 0.890680 0.373794
vt 0.399921 0.237714
vt 0.894302 0.512507
vt 0.890685 0.425910
vt 0.890696 0.542545
vt 0.429837 0.117620
vt 0.398226 0.140587
vt 0.925193 0.542542
vt 0.441891 0.154521
vt 0.402818 0.154522
vt 0.925182 0.425906
vt 0.925220 0.879041
vt 0.925146 0.036672
vt 0.925212 0.763026
vt 0.890724 0.879043
vn 0.000000 0.587787 -0.809016
vn 0.000000 0.587787 -0.809016
vn 0.000000 0.587787 -0.809016
vn 0.000000 0.587787 -0.809016
vn 0.000000 0.000000 -1.000000
vn 0.000000 0.000000 -1.000000
vn 0.000000 0.000000 -1.000000
vn 0.000000 0.000000 -1.000000
vn 0.000000 -0.587786 -0.809017
vn 0.000000 -0.587786 -0.809017
vn 0.000000 -0.587786 -0.809017
vn 0.000000 -0.587786 -0.809017
vn 0.000000 -0.951030 -0.309099
vn 0.000000 -0.951030 -0.309099
vn 0.000000 -0.951030 -0.309099
vn 0.000000 -0.951030 -0.309099
vn 0.000001 -0.951056 0.309018
vn 0.000001 -0.951056 0.309018
vn 0.000001 -0.951056 0.309018
vn 0.000001 -0.951056 0.309018
vn -0.000004 -0.587785 0.809017
vn -0.000004 -0.587785 0.809017
vn -0.000004 -0.587785 0.809017
vn -0.000004 -0.587785 0.809017
vn -0.000004 -0.000000 1.000000
vn -0.000004 -0.000000 1.000000
vn -0.000004 -0.000000 1.000000
vn -0.000004 -0.000000 1.000000
vn -0.000004 0.587785 0.809017
vn -0.000004 0.587785 0.809017
vn -0.000004 0.587785 0.809017
vn -0.000004 0.587785 0.809017
vn 0.000001 0.951055 0.309021
vn 0.000001 0.951055 0.309021
vn 0.000001 0.951055 0.309021
vn 0.000001 0.951055 0.309021
vn -0.000002 0.951030 -0.309100
vn -0.000002 0.951030 -0.309100
vn -0.000002 0.951030 -0.309100
vn -0.000002 0.951030 -0.309100
vn 0.992829 0.070265 0.096710
vn 0.992829 0.070265 0.096710
vn 0.992829 0.070265 0.096710
vn 0.992829 0.070265 0.096710
vn 0.000004 0.765659 -0.643247
vn 0.000004 0.765659 -0.643247
vn 0.000004 0.765659 -0.643247
vn 0.000004 0.765659 -0.643247
vn -0.992829 0.070269 0.096713
vn -0.992829 0.070269 0.096713
vn -0.992829 0.070269 0.096713
vn -0.992829 0.070269 0.096713
vn 0.000000 -0.851897 0.523710
vn 0.000000 -0.851897 0.523710
vn 0.000000 -0.851897 0.523709
vn 0.000000 -0.851897 0.523710
vn 0.998991 -0.026409 0.036336
vn 0.998986 -0.026470 0.036428
vn 0.992827 -0.070282 0.096725
vn 0.992827 -0.070282 0.096725
vn 0.000000 0.851894 0.523714
vn 0.000000 0.851894 0.523714
vn 0.000000 0.851894 0.523714
vn 0.000000 0.851894 0.523714
vn -0.998986 -0.026468 0.036424
vn -0.998991 -0.026399 0.036333
vn -0.992830 -0.070265 0.096705
vn -0.992830 -0.070265 0.096705
vn 0.000004 -0.765663 -0.643242
vn 0.000004 -0.765663 -0.643242
vn 0.000004 -0.765663 -0.643242
vn 0.000004 -0.765663 -0.643242
vn 0.998987 -0.042793 -0.013905
vn 0.998979 -0.042970 -0.013964
vn 0.992737 -0.114415 -0.037179
vn 0.992737 -0.114415 -0.037179
vn 0.000000 -0.232314 0.972641
vn 0.000000 -0.232314 0.972641
vn 0.000000 -0.232314 0.972641
vn 0.000000 -0.232314 0.972641
vn -0.998979 -0.042962 -0.013963
vn -0.998987 -0.042790 -0.013905
vn -0.992738 -0.114406 -0.037180
vn -0.992738 -0.114406 -0.037180
vn 0.000000 0.373675 -0.927560
vn 0.000000 0.373675 -0.927560
vn 0.000000 0.373675 -0.927560
vn 0.000000 0.373675 -0.927560
vn 0.992680 0.000000 -0.120772
vn 0.992680 0.000000 -0.120772
vn 0.992680 0.000000 -0.120772
vn 0.992680 0.000000 -0.120772
vn 0.000000 -0.997225 0.074447
vn 0.000000 -0.997225 0.074447
vn 0.000000 -0.997225 0.074447
vn 0.000000 -0.997225 0.074447
vn -0.992680 0.000004 -0.120771
vn -0.992680 0.000004 -0.120771
vn -0.992680 0.000004 -0.120771
vn -0.992680 0.000004 -0.120771
vn 0.000000 0.997225 0.074454
vn 0.000000 0.997225 0.074454
vn 0.000000 0.997225 0.074454
vn 0.000000 0.997225 0.074454
vn 0.998979 0.042966 -0.013964
vn 0.998987 0.042790 -0.013908
vn 0.992738 0.114405 -0.037184
vn 0.992738 0.114405 -0.037184
vn 0.000000 -0.373673 -0.927561
vn 0.000000 -0.373673 -0.927561
vn 0.000000 -0.373673 -0.927561
vn 0.000000 -0.373673 -0.927561
vn -0.998987 0.042790 -0.013905
vn -0.998979 0.042965 -0.013963
vn -0.992738 0.114411 -0.037180
vn -0.992737 0.114411 -0.037180
vn 0.000007 0.232326 0.972638
vn 0.000007 0.232326 0.972638
vn 0.000007 0.232326 0.972638
vn 0.000007 0.232326 0.972638
vn 1.000000 0.000004 0.000002
vn 1.000000 0.000004 -0.000002
vn 1.000000 0.000004 0.000002
vn 1.000000 -0.000002 0.000002
vn 1.000000 -0.000002 0.000002
vn 1.000000 -0.000002 0.000000
vn 1.000000 -0.000002 -0.000003
vn 1.000000 -0.000006 -0.000008
vn 1.000000 0.000004 -0.000009
vn 1.000000 0.000010 -0.000006
vn 1.000000 0.000010 -0.000006
vn 1.000000 0.000004 -0.000001
vn 1.000000 0.000004 -0.000001
vn 1.000000 0.000002 -0.000000
vn -1.000000 0.000004 0.000000
vn -1.000000 0.000004 0.000000
vn -1.000000 0.000000 0.000000
vn -1.000000 0.000000 0.000000
vn -1.000000 -0.000000 0.000000
vn -1.000000 -0.000002 0.000000
vn -1.000000 0.000005 0.000000
vn -1.000000 0.000001 0.000000
vn -1.000000 -0.000002 -0.000002
vn -1.000000 0.000000 -0.000004
vn -1.000000 0.000000 -0.000004
vn -1.000000 -0.000002 -0.000003
vn -1.000000 -0.000002 -0.000003
vn -1.000000 -0.000002 0.000000
vn 0.000000 -0.587792 0.809012
vn 0.000000 -0.587792 0.809012
vn 0.000000 -0.587792 0.809012
vn 0.000000 -0.587792 0.809012
vn 0.000000 -0.951057 0.309017
vn 0.000000 -0.951057 0.309016
vn 0.000000 -0.951057 0.309017
vn 0.000000 -0.951057 0.309017
vn 0.000000 -0.951059 -0.309011
vn 0.000000 -0.951059 -0.309011
vn 0.000000 -0.951059 -0.309011
vn 0.000000 -0.951059 -0.309011
vn 0.000000 -0.587787 -0.809016
vn 0.000000 -0.587787 -0.809016
vn 0.000000 -0.587787 -0.809016
vn 0.000000 -0.587787 -0.809016
vn 0.000000 0.000000 -1.000000
vn 0.000000 0.000000 -1.000000
vn 0.000000 0.000000 -1.000000
vn 0.000000 0.000000 -1.000000
vn 0.000000 0.587782 -0.809020
vn 0.000000 0.587782 -0.809020
vn 0.000000 0.587782 -0.809020
vn 0.000000 0.587782 -0.809020
vn 0.000000 0.951056 -0.309018
vn 0.000000 0.951056 -0.309018
vn 0.000000 0.951056 -0.309018
vn 0.000000 0.951056 -0.309018
vn -0.000001 0.951056 0.309020
vn -0.000001 0.951056 0.309020
vn -0.000001 0.951056 0.309020
vn -0.000001 0.951056 0.309020
vn 0.000000 0.587789 0.809015
vn 0.000000 0.587789 0.809015
vn 0.000000 0.587789 0.809015
vn 0.000000 0.587789 0.809015
vn -0.000005 0.000000 1.000000
vn -0.000005 0.000000 1.000000
vn -0.000005 0.000000 1.000000
vn -0.000005 0.000000 1.000000
s off
g textureEditorIsolateSelectSet pCylinder164
usemtl aiAmbientOcclusion1SG
f 1/74/1 2/127/2 12/105/3 11/102/4
f 33/5/5 34/6/6 35/104/7 36/8/8
f 3/126/9 4/78/10 14/109/11 13/106/12
f 29/13/13 30/14/14 31/108/15 32/16/16
f 5/69/17 6/82/18 16/113/19 15/110/20
f 25/21/21 26/22/22 27/112/23 28/24/24
f 7/81/25 8/124/26 18/117/27 17/114/28
f 21/29/29 22/30/30 23/116/31 24/32/32
f 9/121/33 10/75/34 20/101/35 19/118/36
f 37/37/37 38/38/38 39/100/39 40/40/40
g pCylinder164
f 8/26/41 9/33/42 22/84/43 21/83/44
g textureEditorIsolateSelectSet pCylinder164
f 9/121/45 19/118/46 23/116/47 22/30/48
g pCylinder164
f 19/36/49 18/27/50 24/115/51 23/31/52
g textureEditorIsolateSelectSet pCylinder164
f 18/117/53 8/124/54 21/29/55 24/32/56
s 1
g pCylinder164
f 6/18/57 7/25/58 26/80/59 25/79/60
s off
g textureEditorIsolateSelectSet pCylinder164
f 7/81/61 17/114/62 27/112/63 26/22/64
s 2
g pCylinder164
f 17/28/65 16/19/66 28/111/67 27/23/68
s off
g textureEditorIsolateSelectSet pCylinder164
f 16/113/69 6/82/70 25/21/71 28/24/72
s 1
g pCylinder164
f 4/10/73 5/17/74 30/85/75 29/77/76
s off
g textureEditorIsolateSelectSet pCylinder164
f 5/69/77 15/110/78 31/108/79 30/14/80
s 2
g pCylinder164
f 15/119/81 14/11/82 32/107/83 31/15/84
s off
g textureEditorIsolateSelectSet pCylinder164
f 14/109/85 4/78/86 29/13/87 32/16/88
g pCylinder164
f 2/2/89 3/9/90 34/86/91 33/76/92
g textureEditorIsolateSelectSet pCylinder164
f 3/125/93 13/128/94 35/104/95 34/6/96
g pCylinder164
f 13/12/97 12/3/98 36/103/99 35/7/100
g textureEditorIsolateSelectSet pCylinder164
f 12/105/101 2/127/102 33/5/103 36/8/104
s 1
g pCylinder164
f 10/34/105 1/1/106 38/73/107 37/72/108
s off
g textureEditorIsolateSelectSet pCylinder164
f 1/74/109 11/102/110 39/100/111 38/38/112
s 2
g pCylinder164
f 11/4/113 20/35/114 40/99/115 39/39/116
s off
g textureEditorIsolateSelectSet pCylinder164
f 20/101/117 10/75/118 37/37/119 40/40/120
s 1
g pCylinder164
f 2/2/121 1/1/106 41/62/122 42/71/123
f 3/9/124 2/2/121 42/71/123 43/70/125
f 4/10/73 3/9/124 43/70/125 44/68/126
f 5/17/74 4/10/73 44/68/126 45/67/127
f 6/18/57 5/17/74 45/67/127 46/66/128
f 7/25/58 6/18/57 46/66/128 47/65/129
f 8/26/130 7/25/58 47/65/129 48/64/131
f 9/33/132 8/26/130 48/64/131 49/63/133
f 10/34/105 9/122/132 49/123/133 50/61/134
f 1/1/106 10/34/105 50/61/134 41/62/122
s 2
f 11/4/113 12/3/135 52/96/136 51/88/137
f 12/3/135 13/12/138 53/95/139 52/96/136
f 13/12/138 14/11/82 54/94/140 53/95/139
f 14/11/82 15/119/81 55/120/141 54/94/140
f 15/20/81 16/19/66 56/92/142 55/93/141
f 16/19/66 17/28/65 57/91/143 56/92/142
f 17/28/65 18/27/144 58/90/145 57/91/143
f 18/27/144 19/36/146 59/89/147 58/90/145
f 19/36/146 20/35/114 60/87/148 59/89/147
f 20/35/114 11/4/113 51/88/137 60/87/148
s off
f 42/42/149 41/41/150 51/52/151 52/51/152
f 41/41/153 50/50/154 60/60/155 51/52/156
f 50/50/157 49/49/158 59/59/159 60/60/160
f 49/49/161 48/48/162 58/58/163 59/59/164
f 48/48/165 47/47/166 57/57/167 58/58/168
f 47/47/169 46/46/170 56/56/171 57/57/172
f 46/46/173 45/97/174 55/55/175 56/56/176
f 45/45/177 44/44/178 54/54/179 55/98/180
f 44/44/181 43/43/182 53/53/183 54/54/184
f 43/43/185 42/42/186 52/51/187 53/53/188
